<svg xmlns="http://www.w3.org/2000/svg" xml:space="preserve" id="Layer_1" x="0" y="0" style="enable-background:new 0 0 150 42.7" version="1.1" viewBox="0 0 150 42.7"><style>.st0{fill:#2a3645}</style><path d="M134.5 0h4.5v42.4h-4.5V0zM81.8 23.2c-5.3-.6-7.1-1.3-7.1-3.6 0-2.4 2.5-3.9 6.5-3.9 3.4 0 6 1.7 6.6 4.2l6.2-1.4c-1.2-5.2-5.9-8.3-12.9-8.4h-.2c-7.4 0-12.5 4.1-12.5 9.9 0 7.1 6.1 8.4 12.9 9.3h.3c4.5.5 7 .8 7 4 0 2.4-2.8 4-6.7 4-4.3 0-7.2-2-7.7-5L68 33.6c1 5.7 6.2 9.2 14 9.2 7.6 0 12.9-4.1 12.9-9.9 0-7.5-6.2-8.9-13.1-9.7zM57.1 42.4l-7.6-12.3-4 4.4v7.9h-9.4V0h9.4v22.8l11.4-12.4h10.8L56 23.2l12.1 19.2zM145.5 0h4.5v42.4h-4.5V0zM29.8 34.9v-13c0-7.6-5-11.8-14.2-11.8-7.3 0-12.6 3.1-14.3 8.1l9.1 1.9c.6-1.6 2.4-2.6 5-2.6 3 0 4.8 1.4 4.8 3.9v.8h-5.4C5.2 22.2 0 26.1 0 33.1c0 6 4.6 9.7 12.1 9.7 4.5 0 7.3-1.7 9.4-4.4h.3l1.3 4H32l-2.2-7.5zm-16.1.4c-2.4 0-3.9-1.1-3.9-2.8 0-2.9 3-3.3 4.9-3.3h5.5c-.2 3.8-2.6 6.1-6.5 6.1zM128.7 28c.1-.9.2-1.8.2-2.7 0-.8-.1-1.9-.3-2.8 0-.2-.1-.5-.1-.7-1.4-7.4-6.9-11.8-14.8-11.8-4.4 0-8.2 1.6-11 4.6-2.7 3-4.2 7-4.2 11.8 0 9.8 6.4 16.3 15.9 16.3 6.3 0 11.3-3.4 13.3-8.8l-5.9-1.8c-1.2 3-4 4.8-7.7 4.8-5.2 0-8.7-3.5-9-9h19.7l3.9.1zm-23.3-5.4c.7-4 4.2-6.9 8.3-6.9 4.6 0 7.7 2.6 8.4 6.9h-16.7z" class="st0"/></svg>